<svg id="_0292_card_payment" xmlns="http://www.w3.org/2000/svg" viewBox="0 0 500 500" data-imageid="card-payment-44" imageName="Card Payment" class="illustrations_image" style="width: 188px;"><defs><style>.cls-1_card-payment-44,.cls-2_card-payment-44,.cls-3_card-payment-44{fill:#fff;}.cls-4_card-payment-44{fill:#f4a28c;}.cls-5_card-payment-44{fill:#a5a5a5;}.cls-2_card-payment-44,.cls-6_card-payment-44{opacity:.3;}.cls-7_card-payment-44,.cls-6_card-payment-44{fill:#e6e6e6;}.cls-8_card-payment-44{fill:#000001;opacity:.09;}.cls-3_card-payment-44{opacity:.46;}.cls-9_card-payment-44{fill:#24285b;}.cls-10_card-payment-44{fill:#ffd200;}.cls-11_card-payment-44{fill:#68e1fd;}</style></defs><path id="sd_card-payment-44" class="cls-6_card-payment-44" d="m27.32,217.44s-71.88,214.84,117.38,217.85c189.27,3.01,275.78-29.98,276.64-139.29.86-109.31-67.31-211.32-186.12-212.45-118.82-1.13-183.06,39.98-207.9,133.9Z"/><g id="machine_card-payment-44"><path class="cls-9_card-payment-44" d="m287.03,149.78h17.62c7.14,0,12.82,5.98,12.45,13.11l-11.16,214.5c-.4,7.65-6.71,13.64-14.37,13.64h-13.48l8.94-241.25Z"/><path class="cls-7_card-payment-44" d="m135.93,127.93h0c-12.33,2.84-20.9,14.03-20.44,26.66l8.49,231.26c.45,12.32,9.25,22.74,21.31,25.25h0c37,7.71,75.19,7.71,112.19,0h0c12.07-2.52,20.86-12.94,21.31-25.25l8.49-231.26c.46-12.64-8.11-23.83-20.44-26.66h0c-43.08-9.92-87.85-9.92-130.93,0Z"/><rect class="cls-1_card-payment-44" x="140.84" y="160.34" width="122.13" height="80.45"/><path class="cls-9_card-payment-44" d="m115.49,154.59l-4.91.78c-4.83.77-8.3,5.07-8.02,9.96l12.53,218.98c.22,3.77,3.33,6.71,7.11,6.71h2.89l-9.6-236.44Z"/><rect class="cls-1_card-payment-44" x="137.71" y="268.65" width="32.46" height="16"/><rect class="cls-1_card-payment-44" x="183.99" y="268.65" width="32.46" height="16"/><rect class="cls-1_card-payment-44" x="230.51" y="268.65" width="32.46" height="16"/><rect class="cls-1_card-payment-44" x="137.71" y="302.13" width="32.46" height="16"/><rect class="cls-1_card-payment-44" x="183.99" y="302.13" width="32.46" height="16"/><rect class="cls-1_card-payment-44" x="230.51" y="302.13" width="32.46" height="16"/><rect class="cls-1_card-payment-44" x="137.71" y="335.5" width="32.46" height="16"/><rect class="cls-1_card-payment-44" x="183.99" y="335.5" width="32.46" height="16"/><rect class="cls-1_card-payment-44" x="230.51" y="335.5" width="32.46" height="16"/><rect class="cls-11_card-payment-44 targetColor" x="137.71" y="368.53" width="32.46" height="16" style="fill: rgb(104, 225, 253);"/><rect class="cls-5_card-payment-44" x="183.99" y="368.53" width="32.46" height="16"/><rect class="cls-11_card-payment-44 targetColor" x="230.51" y="368.53" width="32.46" height="16" style="fill: rgb(104, 225, 253);"/><path class="cls-11_card-payment-44 targetColor" d="m292.32,378.31s-.03,0-.04,0c-.98-.02-1.76-.84-1.74-1.82l5.28-221.94c.02-.98.82-1.79,1.82-1.73.98.02,1.76.84,1.74,1.82l-5.28,221.94c-.02.97-.81,1.74-1.78,1.74Z" style="fill: rgb(104, 225, 253);"/><rect class="cls-5_card-payment-44" x="149.7" y="138.92" width="104.5" height="5.59"/><polygon class="cls-11_card-payment-44 targetColor" points="160.31 144.51 160.31 49.17 171.01 55.68 181.41 47.43 191.29 55.75 203.84 47.43 213.81 56.61 223.75 47.43 232.13 56.35 243.5 49.17 243.5 144.51 160.31 144.51" style="fill: rgb(104, 225, 253);"/><polygon class="cls-8_card-payment-44" points="265.23 150.15 226.11 125.68 177.2 214.68 310.15 299.49 313.86 228.15 265.23 150.15"/></g><g id="card_card-payment-44"><polygon class="cls-4_card-payment-44" points="359.47 239.57 361.31 278.6 398.5 294.58 420.62 273.99 418.16 252.48 384.67 217.14 359.47 239.57"/><polygon class="cls-8_card-payment-44" points="359.47 239.57 361.31 278.6 398.5 294.58 420.62 273.99 418.16 252.48 384.67 217.14 359.47 239.57"/><path class="cls-4_card-payment-44" d="m414.18,191.65s-17.17-20.32-31.35-29.82c-27.96-18.74-38.1,1.23-36.87,12.29s34.09,44.86,34.09,44.86l34.14-27.33Z"/><rect class="cls-10_card-payment-44" x="225.71" y="141.15" width="172.19" height="111.24" transform="translate(140.16 -129.54) rotate(30)"/><rect class="cls-1_card-payment-44" x="315.07" y="178.99" width="77.09" height="18.38" transform="translate(141.46 -151.6) rotate(30)"/><rect class="cls-3_card-payment-44" x="235.12" y="185.98" width="41.15" height="18.38" rx="4.62" ry="4.62" transform="translate(131.84 -101.7) rotate(30)"/><rect class="cls-3_card-payment-44" x="276.37" y="224.02" width="90.43" height="18.38" rx="4.62" ry="4.62" transform="translate(159.69 -129.55) rotate(30)"/><path class="cls-4_card-payment-44" d="m357.42,326.17s-32.6-31.54-30.58-65.52c.93-15.61,21.04-21.64,30.22-8.98.12.17.24.33.36.5,11.98,17.03,10.86,34.74,37.08,27.66,26.22-7.08-4.3-46.65-4.3-46.65l23.98-41.53s29.29,40.67,36.66,75.59,0,71.79,0,71.79l-66.83,13.98-26.59-26.85Z"/><polygon class="cls-11_card-payment-44 targetColor" points="365.62 343.13 452.9 324.41 486.07 436.55 378.52 452.57 365.62 343.13" style="fill: rgb(104, 225, 253);"/><circle class="cls-2_card-payment-44" cx="277.4" cy="145.22" r="12.16"/><circle class="cls-2_card-payment-44" cx="292.15" cy="152.8" r="12.16"/></g></svg>