<svg version="1.1" id="Layer_1" xmlns="http://www.w3.org/2000/svg" xmlns:xlink="http://www.w3.org/1999/xlink" x="0px" y="0px" viewBox="0 0 500 500" style="width: 188px;" xml:space="preserve" data-imageid="family-1-78" imageName="Family 1" class="illustrations_image">
<style type="text/css">
	.st0_family-1-78{fill:#68E1FD;}
	.st1_family-1-78{fill:#093F68;}
	.st2_family-1-78{fill:#FFC9B0;}
	.st3_family-1-78{fill:#725858;}
	.st4_family-1-78{fill:#FFFFFF;}
</style>
<g id="character-2_family-1-78">
	<path class="st0_family-1-78 targetColor" d="M87.3,397.3h122.4l1.8-84c0.3-14.8-3.8-40-63-40s-63.3,25.2-63,40L87.3,397.3z" style="fill: rgb(104, 225, 253);"/>
	<path class="st1_family-1-78" d="M209.7,399.2H87.3c-1,0-1.9-0.8-1.9-1.9l-1.8-84c-0.1-7.2,0.7-17.7,9.2-26.4c10.1-10.3,28.9-15.5,55.7-15.5&#10;&#9;&#9;s45.6,5.2,55.7,15.5c8.6,8.7,9.4,19.2,9.2,26.4l-1.8,84C211.6,398.4,210.7,399.2,209.7,399.2z M89.1,395.4h118.7l1.8-82.1&#10;&#9;&#9;c0.1-6.5-0.6-16-8.1-23.7c-9.4-9.6-27.2-14.4-53-14.4s-43.6,4.9-53,14.4c-7.5,7.7-8.2,17.2-8.1,23.7L89.1,395.4z"/>
	<rect x="138.1" y="273.3" class="st1_family-1-78" width="20.8" height="124"/>
	<path class="st1_family-1-78" d="M158.9,399h-20.8c-0.9,0-1.7-0.8-1.7-1.7v-124c0-0.9,0.8-1.7,1.7-1.7h20.8c0.9,0,1.7,0.8,1.7,1.7l0,0v124&#10;&#9;&#9;C160.6,398.2,159.8,399,158.9,399C158.9,399,158.9,399,158.9,399z M139.8,395.6h17.4V275h-17.4V395.6z"/>
	<path class="st2_family-1-78" d="M139.9,264.7h17.2l0,0v13.3c0,2.1-1.7,3.9-3.8,3.9h0h-9.5c-2.1,0-3.9-1.7-3.9-3.9l0,0L139.9,264.7L139.9,264.7&#10;&#9;&#9;z"/>
	<path class="st1_family-1-78" d="M149.8,283.8h-2.6c-5.1,0-9.2-4.1-9.2-9.2v-9.9c0-1,0.8-1.9,1.9-1.9h0h17.2c1,0,1.9,0.8,1.9,1.9l0,0v9.9&#10;&#9;&#9;C159,279.7,154.9,283.8,149.8,283.8z M141.8,266.6v8c0,3,2.4,5.4,5.4,5.4h2.6c3,0,5.4-2.4,5.4-5.4v-8L141.8,266.6z"/>
	<path class="st3_family-1-78" d="M89.2,217.1c-8-3-7.5-9.1-8.7-17c-1.2-7.7-1.9-15.6-2.2-23.4c-0.3-8.9,0-18.1,3.4-26.3&#10;&#9;&#9;c4.3-10.6,12.9-17.4,24.3-16.5c-0.3-15.7,9-30.3,25.7-31.2c26.6-1.4,42,27.2,56.9,25.1s18.9-8.7,18.9-8.7s8.9,15.2-3.2,30.2&#10;&#9;&#9;c0,0,11.7-3.4,13.2,12.2s-7.9,57.2-7.9,57.2l-10.7-1.9c-4.5-0.8-10.1,0.3-14.6,0.4l-33.3,1C134.3,218.6,107.3,223.9,89.2,217.1z"/>
	<path class="st1_family-1-78" d="M113.2,222.4c-8.8,0-17.4-0.9-24.7-3.6c-7.9-3-8.7-8.9-9.5-15.2c-0.1-1-0.3-2.1-0.4-3.2&#10;&#9;&#9;c-1.2-7.8-1.9-15.7-2.2-23.6c-0.3-8.4-0.1-18.2,3.5-27.1c4.6-11.3,13.5-17.8,24.1-17.8h0.1c0.5-15.1,9.8-30.2,27.5-31.1&#10;&#9;&#9;c15.5-0.8,27.6,8.2,37.2,15.5c7.4,5.6,13.7,10.4,19.5,9.5c13.6-2,17.5-7.8,17.5-7.9c0.6-0.9,1.7-1.2,2.6-0.6&#10;&#9;&#9;c0.3,0.2,0.5,0.4,0.6,0.6c0.1,0.2,8.1,14.3-1,28.9c1.9,0.2,3.7,0.8,5.3,1.9c3.4,2.3,5.4,6.4,5.9,12.3c1.4,15.8-7.6,56-8,57.7&#10;&#9;&#9;c-0.2,1-1.2,1.6-2.2,1.4c-7.4-1.3-9.8-1.7-10.7-1.9l0,0c-3.1-0.3-6.3-0.3-9.4,0.1c-1.7,0.2-3.3,0.3-4.8,0.4L151,220&#10;&#9;&#9;c-4.1,0.1-9,0.6-14.2,1C129.5,221.7,121.3,222.4,113.2,222.4z M104,135.7c-9.1,0-16.5,5.5-20.6,15.4c-3.4,8.2-3.5,17.5-3.2,25.5&#10;&#9;&#9;c0.3,7.8,1,15.5,2.2,23.2c0.2,1.1,0.3,2.2,0.4,3.3c0.8,6.2,1.3,10,7,12.2l0,0c13.1,5,31.8,3.3,46.7,2c5.2-0.5,10.1-0.9,14.4-1&#10;&#9;&#9;l33.3-1c1.4,0,2.9-0.2,4.6-0.3c3.5-0.3,7.1-0.7,10.4-0.1l8.9,1.6c1.7-8,8.7-41.4,7.5-54.8c-0.4-4.7-1.9-7.9-4.2-9.5&#10;&#9;&#9;c-2-1.2-4.3-1.6-6.5-1c-0.8,0.2-1.6-0.1-2.1-0.8c-0.5-0.7-0.4-1.6,0.1-2.2c6.1-7.1,7.7-17,4.2-25.7c-2.6,2.4-8.1,5.8-18.1,7.3&#10;&#9;&#9;c-7.4,1.1-14.3-4.2-22.3-10.3c-9.6-7.3-20.5-15.5-34.7-14.8c-16.1,0.9-24.2,15.4-23.9,29.3c0,1-0.8,1.9-1.9,1.9c0,0-0.1,0-0.1,0&#10;&#9;&#9;C105.2,135.7,104.6,135.7,104,135.7z"/>
	<ellipse class="st2_family-1-78" cx="99.4" cy="220.1" rx="16.7" ry="14.4"/>
	<path class="st1_family-1-78" d="M99.4,236.4c-10.2,0-18.6-7.3-18.6-16.3s8.3-16.3,18.6-16.3s18.6,7.3,18.6,16.3S109.6,236.4,99.4,236.4z&#10;&#9;&#9; M99.4,207.6c-8.2,0-14.8,5.6-14.8,12.5s6.6,12.5,14.8,12.5s14.8-5.6,14.8-12.5S107.5,207.6,99.4,207.6z"/>
	<ellipse class="st2_family-1-78" cx="196.7" cy="220.1" rx="16.7" ry="14.4"/>
	<path class="st1_family-1-78" d="M196.7,236.4c-10.2,0-18.6-7.3-18.6-16.3s8.3-16.3,18.6-16.3s18.6,7.3,18.6,16.3S207,236.4,196.7,236.4z&#10;&#9;&#9; M196.7,207.6c-8.2,0-14.8,5.6-14.8,12.5s6.6,12.5,14.8,12.5s14.8-5.6,14.8-12.5S204.9,207.6,196.7,207.6z"/>
	<path class="st2_family-1-78" d="M148.5,267L148.5,267c-27.8,0-50.4-22.5-50.4-50.4l0,0v-36.6c3,4.8,12.7,2.9,27.1-21.7&#10;&#9;&#9;c53.6,27.2,73.7,11.6,73.7,11.6v46.6C198.9,244.4,176.3,267,148.5,267C148.5,267,148.5,267,148.5,267z"/>
	<path class="st1_family-1-78" d="M148.5,268.9c-28.8,0-52.2-23.4-52.2-52.2v-36.6c0-1,0.8-1.9,1.9-1.9c0.7,0,1.3,0.3,1.6,0.9&#10;&#9;&#9;c0.5,0.8,1.3,1.3,2.2,1.2c1.9,0,9.2-1.7,21.5-22.9c0.5-0.9,1.6-1.2,2.5-0.7c52,26.3,71.5,12,71.7,11.8c0.8-0.6,2-0.5,2.7,0.3&#10;&#9;&#9;c0.3,0.3,0.4,0.7,0.4,1.2v46.6C200.7,245.5,177.3,268.8,148.5,268.9z M100,183.8v32.8c0.4,26.8,22.4,48.2,49.2,47.8&#10;&#9;&#9;c26.2-0.4,47.4-21.5,47.8-47.8v-43.4c-7.4,3.4-28.9,8.6-71.1-12.3c-8.9,14.9-17.3,23.1-23.8,23.2C101.4,184.1,100.7,184,100,183.8z&#10;&#9;&#9;"/>
	<path class="st0_family-1-78 targetColor" d="M112,397.3c-1.9-30.8-3.7-62-5.3-93.5" style="fill: rgb(104, 225, 253);"/>
	<path class="st1_family-1-78" d="M112,399.2c-1,0-1.8-0.8-1.9-1.8c-2-33.3-3.8-63.9-5.3-93.5c-0.1-1,0.8-1.9,1.8-2c1-0.1,1.9,0.8,2,1.8&#10;&#9;&#9;c1.5,29.6,3.2,60.1,5.3,93.5c0.1,1-0.7,1.9-1.8,2L112,399.2z"/>
	<path class="st0_family-1-78 targetColor" d="M185,397.3c1.9-30.8,3.7-62,5.2-93.5" style="fill: rgb(104, 225, 253);"/>
	<path class="st1_family-1-78" d="M185,399.2h-0.1c-1-0.1-1.8-1-1.8-2c2-32.5,3.8-64,5.2-93.5c0.1-1,1-1.8,2-1.8c1,0.1,1.8,0.9,1.8,2&#10;&#9;&#9;c0,0,0,0,0,0c-1.4,29.5-3.2,61-5.3,93.5C186.8,398.5,186,399.2,185,399.2z"/>
	<circle class="st1_family-1-78" cx="124.2" cy="209.4" r="5.2"/>
	<circle class="st1_family-1-78" cx="174.9" cy="209.4" r="5.2"/>
	<path class="st1_family-1-78" d="M148.4,226.1c-1.7,0-3.4-0.2-5.1-0.4c-1-0.2-1.7-1.2-1.5-2.2c0.2-1,1.2-1.7,2.2-1.5l0,0&#10;&#9;&#9;c2.4,0.4,4.9,0.4,7.4,0.1c0.1-1.7-1.8-7-4.4-11.9c-0.5-0.9-0.1-2.1,0.8-2.6c0.9-0.5,2.1-0.1,2.6,0.8c1.8,3.5,5.9,12,4.4,15.5&#10;&#9;&#9;c-0.4,0.9-1.1,1.5-2.1,1.8C151.2,226,149.8,226.2,148.4,226.1z"/>
	<path class="st1_family-1-78" d="M120.7,230.4c-10.6,0-19.2-8.6-19.2-19.2c0-10.6,8.6-19.2,19.2-19.2s19.2,8.6,19.2,19.1c0,0,0,0,0,0&#10;&#9;&#9;C139.9,221.9,131.3,230.4,120.7,230.4z M120.7,195.9c-8.5,0-15.4,6.9-15.4,15.4s6.9,15.4,15.4,15.4s15.4-6.9,15.4-15.4l0,0&#10;&#9;&#9;C136.1,202.8,129.2,195.9,120.7,195.9z"/>
	<path class="st1_family-1-78" d="M176.2,230.4c-10.6,0-19.2-8.6-19.2-19.1s8.6-19.2,19.1-19.2s19.2,8.6,19.2,19.1c0,0,0,0,0,0&#10;&#9;&#9;C195.3,221.9,186.7,230.4,176.2,230.4z M176.2,195.9c-8.5,0-15.4,6.9-15.4,15.4c0,8.5,6.9,15.4,15.4,15.4c8.5,0,15.4-6.9,15.4-15.4&#10;&#9;&#9;c0,0,0,0,0,0C191.5,202.8,184.6,195.9,176.2,195.9z"/>
	<path class="st1_family-1-78" d="M138,208.7c-1,0-1.9-0.8-1.9-1.9c0-0.6,0.3-1.2,0.8-1.6c0.5-0.3,12-8.3,23-1.9c0.9,0.5,1.2,1.7,0.7,2.6&#10;&#9;&#9;c-0.5,0.9-1.7,1.2-2.6,0.7c0,0,0,0,0,0c-8.8-5.2-18.7,1.6-18.8,1.7C138.8,208.6,138.4,208.8,138,208.7z"/>
	<path class="st1_family-1-78" d="M133.3,190.8L133.3,190.8l-24.7-0.1c-2.1,0.1-3.9-1.5-4-3.6c-0.1-2.1,1.5-3.9,3.6-4c0.1,0,0.3,0,0.4,0l0,0&#10;&#9;&#9;h24.7c2.1-0.1,3.9,1.5,4,3.6c0.1,2.1-1.5,3.9-3.6,4C133.6,190.8,133.5,190.8,133.3,190.8L133.3,190.8z"/>
	<path class="st1_family-1-78" d="M193.2,190.2h-27.2c-2.1-0.1-3.7-1.9-3.6-4c0.1-1.9,1.7-3.5,3.6-3.6h27.2c2.1-0.1,3.9,1.5,4,3.6&#10;&#9;&#9;c0.1,2.1-1.5,3.9-3.6,4C193.4,190.2,193.3,190.2,193.2,190.2z"/>
	<path class="st2_family-1-78" d="M165.9,238.2c0,0-13.8,7-32.6,0"/>
	<path class="st1_family-1-78" d="M150.2,243.2c-6,0-11.9-1.1-17.5-3.2c-1-0.4-1.5-1.5-1.1-2.4c0.4-1,1.5-1.5,2.4-1.1c17.8,6.6,31,0.1,31.1,0.1&#10;&#9;&#9;c0.9-0.5,2.1-0.1,2.5,0.8c0.5,0.9,0.1,2.1-0.8,2.5l0,0C166.4,240.1,160.1,243.2,150.2,243.2z"/>
</g>
<g id="character-3_family-1-78">
	<path class="st3_family-1-78" d="M417.8,182.3c-0.9-11-3.2-21.8-8.1-31.9c-13.3-27.3-56.3-53.8-80.4-24.3c-0.4,0.7-1,1.2-1.8,1.5&#10;&#9;&#9;c-0.5,0.1-1,0.2-1.5,0.2c-20.5,0.3-28.5,15.2-33.4,32.9c-1.2,4.4-1.8,8.9-2.1,13.4c-0.8,6.4-0.7,12.8,0.2,19.1&#10;&#9;&#9;c0.5,8.3,1.4,16.4,1.7,23.7c0.9,20.4,2.6,40.7,4.9,61c0.3,2.5,25.4,6.2,28.4,6.7c20.4,3.4,41.1,4.1,61.6,1.9&#10;&#9;&#9;c9.6-1,20.2,1.5,24.5-9.7c2.1-5.6,1.6-11.7,1.5-17.7c-0.4-17.6,2.8-35,4.1-52.5C418.2,198.4,418.3,190.3,417.8,182.3z"/>
	<path class="st1_family-1-78" d="M363.5,289.6c-2.1,0-4.3,0-6.4-0.1c-10.6-0.3-21.1-1.3-31.6-3.1l-1.5-0.2c-28-4.5-28.2-6.2-28.5-8.1&#10;&#9;&#9;c-2.4-20.2-4-40.8-5-61.2c-0.2-4.1-0.5-8.6-0.9-13.2c-0.3-3.4-0.5-6.9-0.8-10.4c-0.9-6.4-1-13-0.2-19.5c0.2-4.6,0.9-9.2,2.1-13.7&#10;&#9;&#9;c4.6-16.7,12.4-33.9,35.2-34.2c0.3,0,0.6,0,0.8-0.1c0.4-0.2,0.7-0.5,0.9-0.9c8.4-10.3,19.8-14.9,32.9-13.4&#10;&#9;&#9;c19.5,2.3,41.3,18.6,50.7,38c4.7,9.6,7.4,20.3,8.3,32.6c0.6,8.2,0.5,16.3-0.2,24.5c-0.5,5.9-1.1,11.8-1.8,17.5&#10;&#9;&#9;c-1.3,11.4-2.6,23.2-2.4,34.8l0,2.2c0.1,5.4,0.3,11-1.7,16.2c-3.8,10.1-12.6,10.4-20.2,10.6c-1.9,0-3.9,0.1-5.8,0.3&#10;&#9;&#9;C379.6,289.1,371.6,289.6,363.5,289.6z M299.3,277c1.3,0.7,6.2,2.4,25.4,5.4l1.5,0.2c10.3,1.7,20.6,2.8,31.1,3&#10;&#9;&#9;c10,0.3,20-0.1,30-1.2c2-0.2,4.1-0.3,6-0.3c7.8-0.2,13.9-0.4,16.8-8.2c1.7-4.5,1.6-9.7,1.4-14.8l-0.1-2.2&#10;&#9;&#9;c-0.2-11.9,1.1-23.8,2.4-35.4c0.6-5.7,1.3-11.6,1.8-17.4c0.7-7.9,0.8-15.9,0.2-23.9l0,0c-0.9-11.9-3.5-22.1-8-31.3&#10;&#9;&#9;c-8.9-18.3-29.4-33.8-47.8-35.9c-11.8-1.4-21.9,2.8-29.5,12c-0.6,0.9-1.5,1.7-2.6,2.1c-0.6,0.2-1.3,0.3-2,0.3&#10;&#9;&#9;c-20.3,0.3-27.4,16.1-31.6,31.5c-1.1,4.3-1.8,8.6-2,13c-0.3,2.7-0.5,5.5-0.5,8.3c0,3.5,0.3,7,0.8,10.5c0.2,3.6,0.5,7.1,0.8,10.5&#10;&#9;&#9;c0.4,4.7,0.7,9.2,0.9,13.4C295.3,236.8,297,257.1,299.3,277z"/>
	<path class="st0_family-1-78 targetColor" d="M413.6,397.3l4.5-75.1c0.1-27-21.7-48.9-48.6-49h-32.1c-27,0.1-48.7,22-48.6,49l4.5,75.1H413.6z" style="fill: rgb(104, 225, 253);"/>
	<path class="st1_family-1-78" d="M413.6,399.2H293.3c-1,0-1.8-0.8-1.9-1.8l-4.5-75.1c0-28.2,22.6-51,50.5-51h32.1c27.9,0,50.5,22.8,50.5,50.9&#10;&#9;&#9;l-4.5,75.2C415.4,398.4,414.6,399.2,413.6,399.2z M295.1,395.4h116.7l4.4-73.3c0-25.9-20.9-46.9-46.7-47h-32.1&#10;&#9;&#9;c-25.8,0-46.7,21.1-46.7,47.1L295.1,395.4z"/>
	<polygon class="st4_family-1-78" points="344.4,273.2 353.2,339.5 362.5,273.2 &#9;"/>
	<path class="st1_family-1-78" d="M353.2,341.2L353.2,341.2c-0.8,0-1.6-0.6-1.7-1.5l-8.8-66.4c-0.1-0.9,0.5-1.8,1.5-1.9c0.1,0,0.1,0,0.2,0h18.1&#10;&#9;&#9;c0.5,0,1,0.2,1.3,0.6c0.3,0.4,0.5,0.9,0.4,1.4l-9.3,66.4C354.8,340.6,354.1,341.2,353.2,341.2z M346.4,274.9l6.9,52.1l7.3-52.1&#10;&#9;&#9;L346.4,274.9z"/>
	<path class="st2_family-1-78" d="M344.4,262.8h18.1l0,0v14c0,2.2-1.8,4.1-4.1,4.1h-10c-2.2,0-4.1-1.8-4.1-4.1L344.4,262.8L344.4,262.8z"/>
	<path class="st1_family-1-78" d="M354.8,282.7h-2.7c-5.3,0-9.6-4.3-9.6-9.6v-10.4c0-1,0.9-1.9,1.9-1.9h18.1c1,0,1.9,0.9,1.9,1.9v10.4&#10;&#9;&#9;C364.4,278.4,360.1,282.7,354.8,282.7z M346.3,264.6v8.5c0,3.2,2.6,5.8,5.8,5.8h2.7c3.2,0,5.8-2.6,5.8-5.8c0,0,0,0,0,0v-8.5H346.3z&#10;&#9;&#9;"/>
	<ellipse class="st2_family-1-78" cx="301.7" cy="215.7" rx="17.6" ry="15.1"/>
	<path class="st1_family-1-78" d="M301.7,232.8c-10.7,0-19.5-7.6-19.5-17.1s8.7-17,19.5-17s19.5,7.6,19.5,17S312.5,232.8,301.7,232.8z&#10;&#9;&#9; M301.7,202.5c-8.6,0-15.7,5.9-15.7,13.3s7,13.3,15.7,13.3s15.7-6,15.7-13.3S310.4,202.5,301.7,202.5z"/>
	<ellipse class="st2_family-1-78" cx="404.2" cy="215.7" rx="17.6" ry="15.1"/>
	<path class="st1_family-1-78" d="M404.2,232.8c-10.7,0-19.5-7.6-19.5-17.1s8.7-17,19.5-17s19.5,7.6,19.5,17S415,232.8,404.2,232.8z&#10;&#9;&#9; M404.2,202.5c-8.7,0-15.7,5.9-15.7,13.3s7,13.3,15.7,13.3s15.7-6,15.7-13.3S412.9,202.5,404.2,202.5z"/>
	<path class="st2_family-1-78" d="M385.7,170.8c-6.5-0.2-12.9-1.7-18.8-4.3c-9.2-4.3-17.1-11-24.5-18c-4.9,13.3-18.3,21.1-30.8,27.9&#10;&#9;&#9;c-2.7,1.4-6.1,2.8-8.5,0.9c-2.6,11.1-2.7,23.4-2.7,34.8c0,29.3,23.7,53,53,53s53-23.7,53-53v-41.2&#10;&#9;&#9;C399.6,170.8,392.6,171.2,385.7,170.8z"/>
	<path class="st1_family-1-78" d="M353.5,267c-30.3,0-54.9-24.6-54.9-54.9c0-10.5,0-23.5,2.7-35.2c0.2-1,1.3-1.6,2.3-1.4&#10;&#9;&#9;c0.3,0.1,0.5,0.2,0.7,0.3c1.2,0.9,3.3,0.6,6.4-1.1c13.2-7.1,25.5-14.5,30-26.9c0.2-0.6,0.7-1.1,1.4-1.2c0.6-0.1,1.3,0,1.7,0.5&#10;&#9;&#9;c6.6,6.3,14.6,13.3,24,17.7c5.1,2.4,10.9,3.7,18.1,4.1c4.4,0.3,9,0.2,13.5,0.1c2.4,0,4.8-0.1,7.2-0.1c1,0,1.9,0.9,1.9,1.9&#10;&#9;&#9;c0,0,0,0,0,0v41.2C408.3,242.4,383.8,267,353.5,267z M304.5,180c-2.1,10.7-2.1,22.5-2.1,32.1c-0.4,28.2,22.2,51.5,50.4,51.9&#10;&#9;&#9;c28.2,0.4,51.5-22.2,51.9-50.4c0-0.5,0-1,0-1.4v-39.4l-5.2,0.1c-4.5,0.1-9.2,0.2-13.8-0.1l0,0c-7.8-0.5-13.9-1.9-19.5-4.5&#10;&#9;&#9;c-8.9-4.2-16.5-10.5-23-16.5c-5.6,12-17.7,19.3-30.6,26.3C311.2,178.8,307.7,180.6,304.5,180L304.5,180z"/>
	<circle class="st1_family-1-78" cx="328.9" cy="204.4" r="4.9"/>
	<circle class="st1_family-1-78" cx="379.5" cy="204.4" r="4.9"/>
	<path class="st1_family-1-78" d="M353.2,222.8c-1.6,0-3.2-0.1-4.8-0.4c-1-0.2-1.7-1.2-1.5-2.2c0.2-1,1.2-1.7,2.2-1.5c2.3,0.4,4.6,0.4,6.9,0.1&#10;&#9;&#9;c0.1-1.6-1.7-6.6-4.1-11.1c-0.5-0.9-0.2-2.1,0.8-2.6s2.1-0.2,2.6,0.8c0,0,0,0,0,0.1c1.8,3.3,5.6,11.5,4.2,14.8&#10;&#9;&#9;c-0.4,0.8-1.1,1.5-2,1.7C356,222.6,354.6,222.8,353.2,222.8z"/>
	<path class="st1_family-1-78" d="M338.9,190.6L338.9,190.6l-23.4-0.1c-1.7,0-3-1.3-3-3s1.3-3,3-3l0,0l23.4,0.1c1.7,0,3,1.3,3,3&#10;&#9;&#9;S340.6,190.6,338.9,190.6L338.9,190.6z"/>
	<path class="st1_family-1-78" d="M372.3,191.1c-1.7,0-3-1.3-3.1-2.9c0-1.7,1.3-3,2.9-3.1l0,0l23.4-1.2c1.7-0.1,3.1,1.2,3.1,2.9&#10;&#9;&#9;s-1.2,3.1-2.9,3.1l-23.4,1.2L372.3,191.1z"/>
	<path class="st1_family-1-78" d="M356.8,243.2c-11.2,0-23.1-6.1-23.9-6.5c-0.9-0.5-1.3-1.6-0.8-2.6c0.5-0.9,1.6-1.3,2.6-0.8&#10;&#9;&#9;c0.2,0.1,22.6,11.6,32.6,2.7c0.8-0.7,2-0.6,2.7,0.2c0.7,0.8,0.6,2-0.2,2.7C366.2,242.1,361.6,243.2,356.8,243.2z"/>
	<path class="st1_family-1-78" d="M320,399.3c-1,0-1.9-0.8-1.9-1.8c-0.1-3.1-0.2-6.5-0.2-10c-0.3-16.2-0.6-36.3-6.7-51.6&#10;&#9;&#9;c-3.6-10.9,0.8-21.6,4.6-31.1c0.5-1.2,1-2.3,1.4-3.5c0.4-1,1.5-1.4,2.5-1.1c1,0.4,1.4,1.5,1.1,2.4c0,0,0,0,0,0&#10;&#9;&#9;c-0.5,1.2-0.9,2.4-1.4,3.5c-3.8,9.3-7.7,19-4.6,28.4c6.4,15.9,6.7,36.4,7,52.9c0,3.5,0.1,6.8,0.2,9.9c0,1-0.8,1.9-1.8,1.9&#10;&#9;&#9;C320.1,399.2,320.1,399.2,320,399.3L320,399.3z"/>
	<path class="st1_family-1-78" d="M386.9,399.3L386.9,399.3c-1.1,0-1.9-0.9-1.9-1.9c0,0,0,0,0,0c0.1-3.1,0.2-6.5,0.2-9.9c0.3-16.5,0.6-37,7-53&#10;&#9;&#9;c3.1-9.3-0.8-19-4.6-28.3c-0.5-1.2-1-2.4-1.4-3.5c-0.4-1,0.1-2.1,1.1-2.5c1-0.4,2.1,0.1,2.5,1.1c0.5,1.2,0.9,2.3,1.4,3.5&#10;&#9;&#9;c3.9,9.5,8.3,20.2,4.7,31c-6.2,15.4-6.5,35.6-6.8,51.7c-0.1,3.5-0.1,6.9-0.2,10C388.8,398.4,388,399.3,386.9,399.3&#10;&#9;&#9;C386.9,399.3,386.9,399.3,386.9,399.3z"/>
</g>
<g id="character-1_family-1-78">
	<path class="st3_family-1-78" d="M307.2,267.3c-0.6-8.4-3-16.6-7-24c-11.4-20.6-48.5-40.4-69.2-18.3c-0.4,0.5-0.9,0.9-1.5,1.1&#10;&#9;&#9;c-0.4,0.1-0.8,0.2-1.2,0.1c-17.7,0.2-24.5,11.4-28.7,24.7c-1,3.3-1.6,6.6-1.8,10c-0.3,2.1-0.4,4.2-0.4,6.3c0,2.7,0.2,5.4,0.7,8.1&#10;&#9;&#9;c0.4,6.2,1.2,12.4,1.5,17.8c0.8,15.3,2.2,30.6,4.2,45.9c0.2,1.9,21.9,4.7,24.4,5c17.5,2.6,35.3,3.1,53,1.4c8.2-0.8,17.4,1.1,21-7.3&#10;&#9;&#9;c1.8-4.2,1.4-8.8,1.3-13.3c-0.3-13.2,2.4-26.3,3.6-39.5C307.6,279.4,307.7,273.4,307.2,267.3z"/>
	<path class="st1_family-1-78" d="M260.5,348.4c-1.9,0-3.7,0-5.5-0.1c-9.1-0.2-18.2-1-27.2-2.3l-1.3-0.2c-24.3-3.4-24.5-4.7-24.7-6.5&#10;&#9;&#9;c-2-15.2-3.5-30.7-4.3-46c-0.2-3.1-0.5-6.4-0.8-9.9c-0.2-2.6-0.5-5.2-0.7-7.9c-0.4-2.7-0.7-5.4-0.7-8.2c0-2.2,0.2-4.4,0.5-6.5&#10;&#9;&#9;c0.2-3.5,0.8-7,1.9-10.4c3.8-12,10.7-25.8,30.5-26c0.2,0,0.5,0,0.7,0c0.3-0.2,0.5-0.4,0.7-0.6c7.5-8,17.6-11.5,29.3-10&#10;&#9;&#9;c16.5,2,35,14.4,43,28.6c4.2,7.6,6.6,16.1,7.2,24.8c0.5,6.2,0.4,12.4-0.2,18.5c-0.4,4.4-1,8.8-1.5,13.1c-1.1,8.6-2.2,17.4-2,26.1&#10;&#9;&#9;l0,1.6c0.1,4.1,0.3,8.4-1.5,12.5c-3.4,7.8-11,8-17.6,8.2c-1.6,0-3.3,0.1-5,0.2C274.4,348.1,267.5,348.4,260.5,348.4z M205.4,338.1&#10;&#9;&#9;c1.3,0.6,5.9,1.8,21.6,4l1.3,0.2c8.9,1.3,17.8,2.1,26.7,2.3c8.6,0.2,17.3-0.1,25.8-0.9c1.7-0.2,3.5-0.2,5.2-0.2&#10;&#9;&#9;c6.4-0.2,11.8-0.3,14.3-5.9c1.4-3.3,1.3-7,1.2-10.8V325c-0.2-9,1-18,2.1-26.7c0.5-4.3,1.1-8.7,1.5-13c0.6-5.9,0.7-11.9,0.2-17.8&#10;&#9;&#9;c-0.6-8.1-2.9-16.1-6.8-23.2c-7.4-13.3-24.6-24.8-40.1-26.7c-7.3-0.9-17.7-0.1-26.1,8.8c-0.6,0.7-1.4,1.3-2.3,1.7&#10;&#9;&#9;c-0.6,0.2-1.2,0.2-1.8,0.2c-17.3,0.2-23.2,11.4-27,23.4c-0.9,3.1-1.5,6.3-1.7,9.6c-0.6,4.6-0.6,9.3,0.2,13.9c0.2,2.8,0.4,5.4,0.7,8&#10;&#9;&#9;c0.3,3.5,0.6,6.9,0.8,10C202.1,308.1,203.5,323.2,205.4,338.1L205.4,338.1z"/>
	<path class="st4_family-1-78" d="M298.8,397.4l1.7-27.2c0-19.1-16.4-34.6-36.5-34.6h-24.1c-20.2,0-36.5,15.5-36.5,34.6l1.7,27.2H298.8z"/>
	<path class="st1_family-1-78" d="M298.8,399.1h-93.7c-0.9,0-1.6-0.7-1.7-1.6l-1.7-27.2c0-20.1,17.1-36.4,38.2-36.4H264&#10;&#9;&#9;c21.1,0,38.2,16.3,38.2,36.3l-1.8,27.3C300.4,398.4,299.7,399.1,298.8,399.1z M206.7,395.7h90.5l1.6-25.6c0-18-15.6-32.8-34.8-32.8&#10;&#9;&#9;h-24.1c-19.2,0-34.8,14.8-34.8,32.9L206.7,395.7z"/>
	<path class="st2_family-1-78" d="M245.1,327.8h13.6l0,0v10.5c0,1.7-1.3,3-3,3h-7.5c-1.7,0-3-1.3-3-3L245.1,327.8L245.1,327.8z"/>
	<path class="st1_family-1-78" d="M253,343.2h-2.1c-4.2,0-7.7-3.4-7.7-7.7v-7.8c0-1,0.9-1.9,1.9-1.9h13.6c1,0,1.9,0.8,1.9,1.9v0v7.8&#10;&#9;&#9;C260.7,339.8,257.2,343.2,253,343.2z M247,329.6v5.9c0,2.1,1.7,3.9,3.9,3.9c0,0,0,0,0,0h2.1c2.1,0,3.9-1.7,3.9-3.9l0,0v-5.9H247z"/>
	<ellipse class="st2_family-1-78" cx="300.4" cy="292.4" rx="13.2" ry="11.4"/>
	<path class="st1_family-1-78" d="M300.4,305.7c-8.3,0-15.1-6-15.1-13.3s6.8-13.3,15.1-13.3s15.1,6,15.1,13.3S308.8,305.7,300.4,305.7z&#10;&#9;&#9; M300.4,283c-6.2,0-11.3,4.3-11.3,9.5s5.1,9.5,11.3,9.5s11.3-4.3,11.3-9.5S306.7,283,300.4,283L300.4,283z"/>
	<ellipse class="st2_family-1-78" cx="203.4" cy="292.4" rx="13.2" ry="11.4"/>
	<path class="st1_family-1-78" d="M203.4,305.7c-8.3,0-15.1-6-15.1-13.3s6.8-13.3,15.1-13.3s15.1,6,15.1,13.3S211.8,305.7,203.4,305.7z&#10;&#9;&#9; M203.4,283c-6.2,0-11.3,4.3-11.3,9.5s5.1,9.5,11.3,9.5s11.3-4.3,11.3-9.5S209.7,283,203.4,283L203.4,283z"/>
	<path class="st2_family-1-78" d="M280.4,258.7c-5.7-0.2-11.3-1.2-16.6-3.2c-8.1-3.2-15.1-8.3-21.6-13.5c-4.3,10.1-16.2,15.9-27.2,20.9&#10;&#9;&#9;c-2.4,1.1-5.4,2.1-7.5,0.7c-2.3,8.4-2.4,17.5-2.4,26.1c0,22,21,39.8,46.9,39.8s46.8-17.8,46.8-39.8v-31&#10;&#9;&#9;C292.7,258.7,286.5,259,280.4,258.7z"/>
	<path class="st1_family-1-78" d="M251.9,331.4c-26.9,0-48.8-18.7-48.8-41.7c0-7.9,0-17.7,2.4-26.6c0.3-1,1.3-1.6,2.3-1.3&#10;&#9;&#9;c0.2,0.1,0.4,0.1,0.6,0.3c1,0.7,2.9,0.4,5.7-0.9c11.6-5.3,22.4-10.9,26.3-20c0.2-0.5,0.7-0.9,1.3-1.1c0.6-0.1,1.2,0,1.6,0.4&#10;&#9;&#9;c5.8,4.7,12.9,10,21.1,13.2c5.1,1.9,10.5,3,16,3.1l0,0c3.9,0.2,8,0.1,11.9,0.1l6.3-0.1c1,0,1.9,0.9,1.9,1.9v31&#10;&#9;&#9;C300.7,312.7,278.8,331.4,251.9,331.4z M208.8,266.1c-1.8,7.9-1.8,16.5-1.8,23.6c0,20.9,20.2,37.9,45,37.9s45-17,45-37.9v-29.1&#10;&#9;&#9;l-4.4,0.1c-4,0.1-8.1,0.1-12.2-0.1c-5.9-0.2-11.7-1.3-17.2-3.4c-7.8-3.1-14.6-7.9-20.3-12.4c-5,9-15.7,14.5-27.1,19.7&#10;&#9;&#9;C213.8,265.5,211.2,266.5,208.8,266.1z"/>
	<circle class="st1_family-1-78" cx="233.5" cy="283.9" r="3.7"/>
	<circle class="st1_family-1-78" cx="271.5" cy="283.9" r="3.7"/>
	<path class="st1_family-1-78" d="M251.7,298.2c-1.2,0-2.5-0.1-3.7-0.3c-1-0.2-1.7-1.2-1.5-2.2s1.2-1.7,2.2-1.5c1.5,0.3,3.1,0.3,4.6,0.2&#10;&#9;&#9;c-0.6-2.7-1.6-5.3-3-7.8c-0.5-0.9-0.1-2.1,0.8-2.6c0.9-0.5,2.1-0.1,2.6,0.8c1.7,3.2,4.3,8.9,3.1,11.5c-0.3,0.8-1,1.3-1.8,1.5&#10;&#9;&#9;C253.9,298.1,252.8,298.2,251.7,298.2z"/>
	<path class="st1_family-1-78" d="M241,274.3L241,274.3h-17.6c-1.7,0-3-1.3-3-3s1.3-3,3-3l0,0H241c1.7,0,3,1.3,3,3S242.6,274.3,241,274.3&#10;&#9;&#9;L241,274.3z"/>
	<path class="st1_family-1-78" d="M266.1,274.7c-1.7,0-3-1.3-3.1-2.9c0-1.7,1.3-3,2.9-3.1l17.6-0.9c1.7-0.1,3.1,1.2,3.1,2.9s-1.2,3.1-2.9,3.1&#10;&#9;&#9;l-17.6,0.9H266.1z"/>
	<path class="st1_family-1-78" d="M254.5,313.6c-8.6,0-17.6-4.6-18.1-4.9c-0.9-0.5-1.3-1.6-0.8-2.5c0.5-0.9,1.6-1.3,2.5-0.8l0,0&#10;&#9;&#9;c0.2,0.1,16.7,8.5,24,2.1c0.8-0.7,2-0.6,2.7,0.2s0.6,2-0.2,2.7l0,0C261.8,312.7,258.1,313.6,254.5,313.6z"/>
	<path class="st1_family-1-78" d="M220.6,399.3c-1,0-1.9-0.8-1.9-1.9c0,0,0,0,0,0v-40c0-1,0.8-1.9,1.9-1.9c1,0,1.9,0.8,1.9,1.9v40&#10;&#9;&#9;C222.5,398.4,221.6,399.3,220.6,399.3C220.6,399.3,220.6,399.3,220.6,399.3z"/>
	<path class="st1_family-1-78" d="M283.7,399.3c-1,0-1.9-0.8-1.9-1.9c0,0,0,0,0,0v-40c0-1,0.8-1.9,1.9-1.9c1,0,1.9,0.8,1.9,1.9c0,0,0,0,0,0v40&#10;&#9;&#9;C285.6,398.4,284.7,399.3,283.7,399.3C283.7,399.3,283.7,399.3,283.7,399.3z"/>
	<rect x="220.6" y="359.3" class="st0_family-1-78 targetColor" width="63.1" height="38.1" style="fill: rgb(104, 225, 253);"/>
	<path class="st1_family-1-78" d="M283.7,399.3h-63.1c-1,0-1.9-0.8-1.9-1.9c0,0,0,0,0,0v-38.1c0-1,0.8-1.9,1.9-1.9h0h63.1c1,0,1.9,0.8,1.9,1.9v0&#10;&#9;&#9;v38.1C285.6,398.4,284.7,399.3,283.7,399.3C283.7,399.3,283.7,399.3,283.7,399.3z M222.5,395.5h59.3v-34.3h-59.3L222.5,395.5z"/>
	<path class="st0_family-1-78 targetColor" d="M231.7,334.5h7.9l0,0v33.2c0,1.2-0.9,2.1-2.1,2.1h-3.7c-1.2,0-2.1-0.9-2.1-2.1L231.7,334.5L231.7,334.5z" style="fill: rgb(104, 225, 253);"/>
	<path class="st1_family-1-78" d="M235.7,371.8c-3.2,0-5.9-2.6-5.9-5.9v-31.4c0-1,0.9-1.9,1.9-1.9h7.9c1,0,1.9,0.8,1.9,1.9l0,0v31.4&#10;&#9;&#9;C241.6,369.1,238.9,371.8,235.7,371.8z M233.6,336.4v29.5c0,1.1,0.9,2.1,2.1,2.1c1.1,0,2.1-0.9,2.1-2.1v-29.5H233.6z"/>
	<path class="st0_family-1-78 targetColor" d="M265.4,334.5h7.9l0,0v33.2c0,1.2-0.9,2.1-2.1,2.1h-3.7c-1.2,0-2.1-0.9-2.1-2.1L265.4,334.5L265.4,334.5&#10;&#9;&#9;L265.4,334.5z" style="fill: rgb(104, 225, 253);"/>
	<path class="st1_family-1-78" d="M269.4,371.8c-3.2,0-5.9-2.6-5.9-5.9v-31.4c0-1,0.8-1.9,1.9-1.9h0h7.9c1,0,1.9,0.8,1.9,1.9v0v31.4&#10;&#9;&#9;C275.2,369.1,272.6,371.8,269.4,371.8z M267.3,336.4v29.5c0.1,1.1,1.1,2,2.2,1.9c1-0.1,1.9-0.9,1.9-1.9v-29.5H267.3z"/>
</g>
</svg>