<svg version="1.1" id="Layer_1" xmlns="http://www.w3.org/2000/svg" xmlns:xlink="http://www.w3.org/1999/xlink" x="0px" y="0px" viewBox="0 0 500 500" style="width: 188px;" xml:space="preserve" data-imageid="money-transfer-3-53" imageName="Money Transfer 3" class="illustrations_image">
<style type="text/css">
	.st0_money-transfer-3-53{fill:#FFFFFF;}
	.st1_money-transfer-3-53{fill:#093F68;}
	.st2_money-transfer-3-53{fill:#DFEAEF;}
	.st3_money-transfer-3-53{fill:#68E1FD;}
	.st4_money-transfer-3-53{fill:#FFBC0E;}
</style>
<g id="device-2_money-transfer-3-53">
	<path class="st0_money-transfer-3-53" d="M282.1,137.7h107.5c6.1,0,11.1,5,11.1,11.1v202.4c0,6.1-5,11.1-11.1,11.1H282.1c-6.1,0-11.1-5-11.1-11.1V148.8&#10;&#9;&#9;C271,142.7,276,137.7,282.1,137.7z"/>
	<path class="st1_money-transfer-3-53" d="M389,364.1H282.8c-7.5,0-13.6-6.1-13.6-13.6v-201c0-7.5,6.1-13.6,13.6-13.6H389c7.5,0,13.6,6.1,13.6,13.6v201&#10;&#9;&#9;C402.6,358,396.5,364.1,389,364.1z M282.8,139.6c-5.5,0-10,4.5-10,10v201c0,5.5,4.5,10,10,10H389c5.5,0,10-4.5,10-10v-201&#10;&#9;&#9;c0-5.5-4.5-10-10-10L282.8,139.6z"/>
	<path class="st2_money-transfer-3-53" d="M335.2,355.4c-5.4,0-9.8-4.4-9.8-9.8s4.4-9.8,9.8-9.8s9.8,4.4,9.8,9.8l0,0C344.9,351,340.5,355.4,335.2,355.4z&#10;&#9;&#9; M335.2,339.5c-3.4,0-6.1,2.7-6.1,6.1c0,3.4,2.7,6.1,6.1,6.1s6.1-2.7,6.1-6.1c0,0,0,0,0,0C341.3,342.2,338.5,339.5,335.2,339.5z"/>
	<rect x="271" y="154.9" class="st1_money-transfer-3-53" width="129.7" height="174.9"/>
	<path class="st1_money-transfer-3-53" d="M400.8,331.6H271c-1,0-1.8-0.8-1.8-1.8c0,0,0,0,0,0V154.9c0-1,0.8-1.8,1.8-1.8c0,0,0,0,0,0h129.8&#10;&#9;&#9;c1,0,1.8,0.8,1.8,1.8c0,0,0,0,0,0v174.9C402.6,330.7,401.8,331.6,400.8,331.6C400.8,331.6,400.8,331.6,400.8,331.6z M272.9,327.9&#10;&#9;&#9;h126.1V156.7H272.9V327.9z"/>
	<path class="st2_money-transfer-3-53" d="M329.5,148.4h-2.6c-1,0-1.8-0.8-1.8-1.8s0.8-1.8,1.8-1.8c0,0,0,0,0,0h2.6c1,0,1.8,0.8,1.8,1.8&#10;&#9;&#9;S330.5,148.4,329.5,148.4C329.5,148.4,329.5,148.4,329.5,148.4z"/>
	<path class="st2_money-transfer-3-53" d="M345,148.4h-11.9c-1,0-1.8-0.8-1.8-1.8s0.8-1.8,1.8-1.8c0,0,0,0,0,0H345c1,0,1.8,0.8,1.8,1.8&#10;&#9;&#9;C346.8,147.6,346,148.4,345,148.4z"/>
</g>
<g id="device-1_money-transfer-3-53">
	<path class="st0_money-transfer-3-53" d="M110.7,116.9h131c6.3,0,11.4,5.1,11.4,11.4v243.4c0,6.3-5.1,11.4-11.4,11.4h-131c-6.3,0-11.4-5.1-11.4-11.4&#10;&#9;&#9;V128.3C99.3,122,104.4,116.9,110.7,116.9z"/>
	<path class="st1_money-transfer-3-53" d="M239.1,384.9H113.3c-8.7,0-15.8-7.1-15.8-15.8V130.9c0-8.7,7.1-15.8,15.8-15.8h125.8c8.7,0,15.8,7.1,15.8,15.8&#10;&#9;&#9;v238.2C254.9,377.8,247.8,384.9,239.1,384.9z M113.3,118.7c-6.7,0-12.1,5.4-12.2,12.2v238.2c0,6.7,5.4,12.1,12.2,12.1h125.8&#10;&#9;&#9;c6.7,0,12.1-5.4,12.1-12.1V130.9c0-6.7-5.4-12.1-12.1-12.2H113.3z"/>
	<path class="st2_money-transfer-3-53" d="M175.3,374.6c-6.2,0-11.2-5-11.2-11.2s5-11.2,11.2-11.2c6.2,0,11.2,5,11.2,11.2c0,0,0,0,0,0&#10;&#9;&#9;C186.5,369.5,181.5,374.6,175.3,374.6z M175.3,355.8c-4.2,0-7.6,3.4-7.6,7.6c0,4.2,3.4,7.6,7.6,7.6c4.2,0,7.6-3.4,7.6-7.6&#10;&#9;&#9;c0,0,0,0,0,0C182.9,359.2,179.5,355.8,175.3,355.8z"/>
	<rect x="99.3" y="137.2" class="st3_money-transfer-3-53 targetColor" width="153.8" height="207.3" style="fill: rgb(104, 225, 253);"/>
	<path class="st1_money-transfer-3-53" d="M253.1,346.4H99.3c-1,0-1.8-0.8-1.8-1.8l0,0V137.2c0-1,0.8-1.8,1.8-1.8h153.8c1,0,1.8,0.8,1.8,1.8v207.3&#10;&#9;&#9;C254.9,345.5,254.1,346.4,253.1,346.4z M101.1,342.7h150.1V139.1H101.1V342.7z"/>
	<path class="st2_money-transfer-3-53" d="M168.6,129.2h-3.1c-1,0-1.8-0.8-1.8-1.8c0-1,0.8-1.8,1.8-1.8h3.1c1,0,1.8,0.8,1.8,1.8&#10;&#9;&#9;C170.4,128.4,169.6,129.2,168.6,129.2z"/>
	<path class="st2_money-transfer-3-53" d="M187,129.2h-14.1c-1,0-1.8-0.8-1.8-1.8c0-1,0.8-1.8,1.8-1.8c0,0,0,0,0,0H187c1,0,1.8,0.8,1.8,1.8&#10;&#9;&#9;C188.8,128.4,188,129.2,187,129.2z"/>
	<polyline class="st3_money-transfer-3-53 targetColor" points="227,216.9 286.5,216.9 286.5,188.3 349.9,240.9 286.5,293.5 286.5,264.9 227,264.9 &#9;" style="fill: rgb(104, 225, 253);"/>
	<path class="st1_money-transfer-3-53" d="M286.5,295.4c-0.3,0-0.5-0.1-0.8-0.2c-0.6-0.3-1-1-1-1.6v-26.9H227c-1,0-1.8-0.8-1.8-1.8s0.8-1.8,1.8-1.8h59.5&#10;&#9;&#9;c1,0,1.8,0.8,1.8,1.8v24.8l58.7-48.8l-58.7-48.8v24.8c0,1-0.8,1.8-1.8,1.8l0,0H227c-1,0-1.8-0.8-1.8-1.8s0.8-1.8,1.8-1.8&#10;&#9;&#9;c0,0,0,0,0,0h57.7v-26.9c0-1,0.8-1.8,1.8-1.8c0.4,0,0.9,0.2,1.2,0.4l63.3,52.6c0.8,0.6,0.9,1.8,0.3,2.5c-0.1,0.1-0.2,0.2-0.3,0.3&#10;&#9;&#9;l-63.4,52.6C287.3,295.2,286.9,295.3,286.5,295.4z"/>
	<path class="st4_money-transfer-3-53" d="M169.4,267.4V260c-2.7-0.7-5.3-1.3-7.8-2.1c-4.9-1.6-9.1-4.7-12-9c-2.4-3.7-3.6-8.1-3.5-12.5h14.4&#10;&#9;&#9;c0.7,5.4,3.3,9.2,8.8,10.7v-19.6c-2.9-0.9-5.8-1.6-8.6-2.5c-3.1-0.9-6-2.5-8.4-4.8c-2.5-2.5-4.1-5.6-4.7-9.1&#10;&#9;&#9;c-0.9-4.2-0.5-8.5,0.9-12.6c2.1-5.8,6.8-10.4,12.6-12.5c2.4-0.8,4.8-1.4,7.3-1.9c0.3-0.1,0.5-0.1,0.9-0.2v-9.8h13.5v0.9&#10;&#9;&#9;c0,2.8,0,5.6,0,8.4c0,0.7,0.2,0.9,0.9,1.1c4.6,0.9,8.9,2.9,12.6,5.9c3.8,3.2,6.4,7.6,7.2,12.5c0.2,1.3,0.3,2.7,0.5,4.1h-14.7&#10;&#9;&#9;c-0.1-4.1-2.6-7.7-6.4-9.3V216c0.5,0.1,1,0.3,1.6,0.4c4,0.8,7.8,2,11.5,3.7c5.6,2.4,9.5,7.8,10,13.9c0.9,5.6-0.5,11.3-3.8,15.9&#10;&#9;&#9;c-2.7,3.8-6.5,6.6-10.9,8.1c-2.7,0.9-5.5,1.6-8.4,2.4v7.2L169.4,267.4z M183,230.3v17c2.2-0.3,4.3-1.2,6-2.6&#10;&#9;&#9;c3.1-2.6,4.2-9-0.4-11.8C186.8,231.9,184.9,231,183,230.3z M169.4,212.9v-16.4c-1.8,0.8-3.5,1.6-5.1,2.6c-3.8,2.5-4.3,9.4,0.4,11.9&#10;&#9;&#9;C166.2,211.6,167.8,212.2,169.4,212.9L169.4,212.9z"/>
	<path class="st1_money-transfer-3-53" d="M182.9,269.2h-13.5c-1,0-1.8-0.8-1.8-1.8l0,0v-6l-1.1-0.3c-1.8-0.5-3.6-0.9-5.4-1.5c-5.3-1.7-9.9-5.1-12.9-9.7&#10;&#9;&#9;c-2.6-4-3.9-8.7-3.8-13.5c0-1,0.8-1.8,1.8-1.8c0,0,0,0,0,0h14.4c0.9,0,1.7,0.7,1.8,1.6c0.5,4.1,2.2,6.8,5.2,8.3v-15.6l-1.3-0.4&#10;&#9;&#9;c-2-0.6-4-1.2-6-1.8c-3.4-1-6.5-2.8-9.1-5.2c-2.7-2.7-4.5-6.2-5.2-10.1c-0.9-4.5-0.6-9.2,1-13.5c2.3-6.4,7.3-11.3,13.7-13.6&#10;&#9;&#9;c1.7-0.6,3.5-1.1,5.3-1.4l1.7-0.4v-8.3c0-1,0.8-1.8,1.8-1.8h0H183c1,0,1.8,0.8,1.8,1.8v0v3.2c0,1.8,0,3.7,0,5.5&#10;&#9;&#9;c4.7,1,9,3.1,12.7,6.2c4.2,3.4,6.9,8.3,7.8,13.6c0.2,0.9,0.3,1.9,0.4,2.9l0.1,1.3c0.1,1-0.6,1.9-1.6,2c-0.1,0-0.1,0-0.2,0h-14.7&#10;&#9;&#9;c-1,0-1.8-0.8-1.8-1.7c0-2.3-1-4.5-2.7-6.1v13.5h0.1c4.1,0.8,8.1,2.1,11.9,3.8c6.2,2.7,10.4,8.6,11,15.3c0.9,6-0.6,12.2-4.1,17.2&#10;&#9;&#9;c-2.9,4.1-7,7.1-11.7,8.8c-1.9,0.7-3.9,1.2-5.9,1.7l-1.3,0.4v5.8C184.8,268.4,184,269.2,182.9,269.2&#10;&#9;&#9;C182.9,269.2,182.9,269.2,182.9,269.2z M171.3,265.6h9.9v-5.3c0-0.8,0.6-1.5,1.3-1.8c0.9-0.3,1.8-0.5,2.7-0.7&#10;&#9;&#9;c1.9-0.5,3.8-1,5.6-1.6c4-1.4,7.5-4,10-7.4c3-4.2,4.3-9.5,3.5-14.6c-0.4-5.5-3.9-10.3-8.9-12.5c-3.5-1.6-7.3-2.8-11.1-3.5l-1.2-0.3&#10;&#9;&#9;l-0.5-0.1c-0.8-0.2-1.4-0.9-1.4-1.8v-18.3c0-1,0.8-1.8,1.8-1.8c0.3,0,0.5,0.1,0.8,0.2c3.8,1.6,6.6,5,7.2,9.1h11&#10;&#9;&#9;c-0.1-0.7-0.2-1.3-0.3-2c-0.7-4.5-3-8.6-6.5-11.4c-3.4-2.8-7.5-4.7-11.8-5.5c-1.4-0.2-2.4-1.4-2.3-2.9c0-2,0-4.1,0-6.1v-1.4h-9.9v8&#10;&#9;&#9;c0,0.9-0.6,1.6-1.4,1.8l-0.4,0.1l-0.4,0.1c-0.8,0.2-1.6,0.4-2.3,0.5c-1.6,0.3-3.2,0.7-4.8,1.3c-5.4,1.9-9.6,6.1-11.6,11.5&#10;&#9;&#9;c-1.3,3.7-1.6,7.7-0.8,11.6c0.5,3.1,1.9,5.9,4.2,8.1c2.2,2.1,4.8,3.5,7.6,4.3c2,0.6,4,1.2,5.9,1.8l2.6,0.8c0.8,0.2,1.3,0.9,1.3,1.8&#10;&#9;&#9;V247c0,0.6-0.3,1.1-0.7,1.4c-0.4,0.3-1,0.5-1.6,0.3c-5.4-1.5-8.8-5-9.9-10.6h-11c0.2,3.4,1.2,6.8,3.1,9.7c2.6,4,6.6,6.9,11.1,8.3&#10;&#9;&#9;c1.6,0.6,3.4,1,5.2,1.5l2.5,0.7c0.8,0.2,1.3,0.9,1.4,1.8L171.3,265.6z M183,249.1c-1,0-1.8-0.8-1.8-1.8v-17c0-1,0.8-1.8,1.8-1.8&#10;&#9;&#9;c0.3,0,0.5,0.1,0.8,0.2c0.6,0.3,1.2,0.5,1.8,0.8c1.4,0.5,2.7,1.2,4,1.9c2.3,1.4,3.8,3.8,3.9,6.5c0.2,3.1-1,6.1-3.4,8.2&#10;&#9;&#9;c-2,1.6-4.3,2.6-6.8,3L183,249.1z M184.8,233v11.9c1.1-0.4,2.1-1,3-1.7c1.4-1.3,2.1-3.2,2-5.1c-0.1-1.5-0.9-2.9-2.2-3.7&#10;&#9;&#9;C186.7,233.9,185.8,233.4,184.8,233z M169.4,214.6c-0.2,0-0.5,0-0.7-0.1l-1.5-0.6c-1.1-0.4-2.2-0.9-3.3-1.4c-2.6-1.3-4.3-4-4.4-6.9&#10;&#9;&#9;c-0.2-3.2,1.2-6.2,3.8-8.1c1.2-0.7,2.4-1.4,3.6-1.9c0.6-0.2,1.1-0.5,1.7-0.8c0.9-0.4,2-0.1,2.4,0.8c0.1,0.3,0.2,0.5,0.2,0.8v16.4&#10;&#9;&#9;C171.2,213.8,170.4,214.6,169.4,214.6C169.4,214.7,169.4,214.7,169.4,214.6L169.4,214.6z M167.6,199.3c-0.8,0.4-1.6,0.8-2.3,1.3&#10;&#9;&#9;c-1.5,1.1-2.3,3-2.2,4.9c0,1.6,1,3.1,2.4,3.9c0.6,0.3,1.3,0.6,2.1,0.9V199.3z"/>
	<path class="st1_money-transfer-3-53" d="M131.6,296h89.2c3.6,0,6.6,3,6.6,6.6v10.8c0,3.6-3,6.6-6.6,6.6h-89.2c-3.6,0-6.6-3-6.6-6.6v-10.8&#10;&#9;&#9;C125,298.9,128,296,131.6,296z"/>
	<path class="st0_money-transfer-3-53" d="M141.9,305.4h-3.2v-2.1h8.9v2h-3.3v7.2h-2.4L141.9,305.4z"/>
	<path class="st0_money-transfer-3-53" d="M157.1,312.6h-2.6l-1.9-3.1H151v3.1h-2.4v-9.3h5c2,0,3.5,1.1,3.5,3.1c0.1,1.4-0.8,2.6-2.1,2.9l0,0L157.1,312.6&#10;&#9;&#9;z M153.4,307.5c0.8,0,1.3-0.4,1.3-1.1s-0.4-1.1-1.3-1.1H151v2.2H153.4z"/>
	<path class="st0_money-transfer-3-53" d="M164.7,311.2h-4.4l-0.6,1.4h-2.4l4.1-9.3h2.2l4.1,9.3h-2.4L164.7,311.2z M163.9,309.2l-1.4-3.4l0,0l-1.4,3.4&#10;&#9;&#9;H163.9z"/>
	<path class="st0_money-transfer-3-53" d="M168.5,303.3h2.5l4.1,5.9l0,0v-5.9h2.4v9.3h-2.5l-4.1-5.9l0,0v5.9h-2.4V303.3z"/>
	<path class="st0_money-transfer-3-53" d="M178.4,309.5l2.2-0.4c0.2,1.2,1.3,2,2.5,1.8c0,0,0,0,0,0c1.1,0,1.8-0.3,1.8-0.9s-0.5-0.8-2.7-1.3&#10;&#9;&#9;s-3.4-1.4-3.4-2.8c0-1.6,1.5-2.8,3.9-2.8s3.9,1.1,4.3,2.8l-2.2,0.5c-0.3-0.9-1.2-1.5-2.1-1.4c-0.9,0-1.5,0.3-1.5,0.9&#10;&#9;&#9;s0.4,0.6,2.6,1.1c2.4,0.5,3.6,1.4,3.6,3c0,1.8-1.6,2.9-4.1,2.9C180.5,312.8,178.8,311.6,178.4,309.5z"/>
	<path class="st0_money-transfer-3-53" d="M188.3,303.3h7.2v2h-4.9v2.1h4.7v2h-4.7v3.2h-2.4V303.3z"/>
	<path class="st0_money-transfer-3-53" d="M196.8,303.3h7.2v2h-4.8v1.6h4.4v1.9h-4.4v1.7h4.8v2h-7.2V303.3z"/>
	<path class="st0_money-transfer-3-53" d="M213.7,312.6h-2.6l-1.9-3.1h-1.5v3.1h-2.4v-9.3h5c2.1,0,3.5,1.1,3.5,3.1c0.1,1.4-0.8,2.6-2.1,2.9l0,0&#10;&#9;&#9;L213.7,312.6z M210,307.5c0.8,0,1.3-0.4,1.3-1.1s-0.4-1.1-1.3-1.1h-2.4v2.2H210z"/>
	<path class="st0_money-transfer-3-53" d="M131.5,168.6c-1,0-1.8-0.8-1.8-1.8v-7.5c0-1,0.8-1.8,1.8-1.8c1,0,1.8,0.8,1.8,1.8v7.5&#10;&#9;&#9;C133.3,167.8,132.5,168.7,131.5,168.6C131.5,168.7,131.5,168.7,131.5,168.6z"/>
	<path class="st0_money-transfer-3-53" d="M131.5,186.4c-1,0-1.8-0.8-1.8-1.8v-7.5c0-1,0.8-1.8,1.8-1.8c1,0,1.8,0.8,1.8,1.8v7.5&#10;&#9;&#9;C133.3,185.6,132.5,186.4,131.5,186.4z"/>
	<path class="st0_money-transfer-3-53" d="M144.1,173.8h-7.5c-1,0.1-1.9-0.7-1.9-1.7s0.7-1.9,1.7-1.9c0.1,0,0.2,0,0.3,0h7.5c1-0.1,1.9,0.7,1.9,1.7&#10;&#9;&#9;s-0.7,1.9-1.7,1.9C144.3,173.8,144.2,173.8,144.1,173.8z"/>
	<path class="st0_money-transfer-3-53" d="M126.4,173.8h-7.5c-1,0.1-1.9-0.7-1.9-1.7s0.7-1.9,1.7-1.9c0.1,0,0.2,0,0.3,0h7.5c1-0.1,1.9,0.7,1.9,1.7&#10;&#9;&#9;s-0.7,1.9-1.7,1.9C126.6,173.8,126.5,173.8,126.4,173.8z"/>
	<path class="st0_money-transfer-3-53" d="M227,191.7c-1,0-1.8-0.8-1.8-1.8c0,0,0,0,0,0v-5.3c-0.1-1,0.7-1.9,1.7-1.9s1.9,0.7,1.9,1.7c0,0.1,0,0.2,0,0.3&#10;&#9;&#9;v5.3C228.8,190.9,228,191.7,227,191.7C227,191.7,227,191.7,227,191.7z"/>
	<path class="st0_money-transfer-3-53" d="M227,204.2c-1,0-1.8-0.8-1.8-1.8v0v-5.3c-0.1-1,0.7-1.9,1.7-1.9s1.9,0.7,1.9,1.7c0,0.1,0,0.2,0,0.3v5.3&#10;&#9;&#9;C228.8,203.3,228,204.2,227,204.2z"/>
	<path class="st0_money-transfer-3-53" d="M235.8,195.3h-5.3c-1,0-1.8-0.8-1.8-1.8s0.8-1.8,1.8-1.8c0,0,0,0,0,0h5.3c1,0,1.8,0.8,1.8,1.8&#10;&#9;&#9;C237.7,194.5,236.8,195.3,235.8,195.3z"/>
	<path class="st0_money-transfer-3-53" d="M223.4,195.3h-5.3c-1,0-1.8-0.8-1.8-1.8s0.8-1.8,1.8-1.8c0,0,0,0,0,0h5.3c1,0,1.8,0.8,1.8,1.8&#10;&#9;&#9;C225.2,194.5,224.4,195.3,223.4,195.3z"/>
	<path class="st0_money-transfer-3-53" d="M128.6,255.6c-1,0-1.8-0.8-1.8-1.8c0,0,0,0,0,0v-5.3c0-1,0.8-1.8,1.8-1.8s1.8,0.8,1.8,1.8l0,0v5.3&#10;&#9;&#9;C130.4,254.8,129.6,255.7,128.6,255.6z"/>
	<path class="st0_money-transfer-3-53" d="M128.6,268.1c-1,0-1.8-0.8-1.8-1.8l0,0V261c0-1,0.8-1.8,1.8-1.8s1.8,0.8,1.8,1.8v5.3&#10;&#9;&#9;C130.5,267.3,129.7,268.1,128.6,268.1C128.6,268.1,128.6,268.1,128.6,268.1z"/>
	<path class="st0_money-transfer-3-53" d="M137.5,259.2h-5.3c-1,0-1.8-0.8-1.8-1.8c0-1,0.8-1.8,1.8-1.8h5.3c1,0,1.8,0.8,1.8,1.8&#10;&#9;&#9;C139.3,258.4,138.5,259.2,137.5,259.2z"/>
	<path class="st0_money-transfer-3-53" d="M125,259.2h-5.3c-1,0-1.8-0.8-1.8-1.8c0-1,0.8-1.8,1.8-1.8h5.3c1,0,1.8,0.8,1.8,1.8&#10;&#9;&#9;C126.8,258.4,126,259.2,125,259.2z"/>
</g>
</svg>