<svg id="_0453_bunny" xmlns="http://www.w3.org/2000/svg" xmlns:xlink="http://www.w3.org/1999/xlink" viewBox="0 0 500 500" data-imageid="easter-bunny-49" imageName="Easter Bunny" class="illustrations_image" style="width: 188px;"><defs><style>.cls-1_easter-bunny-49{fill:url(#linear-gradient);}.cls-1_easter-bunny-49,.cls-2_easter-bunny-49,.cls-3_easter-bunny-49,.cls-4_easter-bunny-49,.cls-5_easter-bunny-49,.cls-6_easter-bunny-49,.cls-7_easter-bunny-49,.cls-8_easter-bunny-49,.cls-9_easter-bunny-49,.cls-10_easter-bunny-49,.cls-11_easter-bunny-49,.cls-12_easter-bunny-49,.cls-13_easter-bunny-49,.cls-14_easter-bunny-49{stroke-width:0px;}.cls-2_easter-bunny-49{isolation:isolate;opacity:.18;}.cls-2_easter-bunny-49,.cls-14_easter-bunny-49{fill:#68e1fd;}.cls-3_easter-bunny-49{fill:url(#linear-gradient-11-easter-bunny-49);}.cls-4_easter-bunny-49{fill:url(#linear-gradient-12-easter-bunny-49);}.cls-5_easter-bunny-49{fill:url(#linear-gradient-10-easter-bunny-49);}.cls-6_easter-bunny-49{fill:url(#linear-gradient-4-easter-bunny-49);}.cls-7_easter-bunny-49{fill:url(#linear-gradient-2-easter-bunny-49);}.cls-8_easter-bunny-49{fill:url(#linear-gradient-3-easter-bunny-49);}.cls-9_easter-bunny-49{fill:url(#linear-gradient-8-easter-bunny-49);}.cls-10_easter-bunny-49{fill:url(#linear-gradient-9-easter-bunny-49);}.cls-11_easter-bunny-49{fill:url(#linear-gradient-7-easter-bunny-49);}.cls-12_easter-bunny-49{fill:url(#linear-gradient-5-easter-bunny-49);}.cls-13_easter-bunny-49{fill:url(#linear-gradient-6-easter-bunny-49);}</style><linearGradient id="linear-gradient-easter-bunny-49" x1="670.92" y1="-171.75" x2="616.01" y2="-339.97" gradientTransform="translate(-485.56 324.1)" gradientUnits="userSpaceOnUse"><stop offset="0" stop-color="#fff"/><stop offset=".13" stop-color="#fff" stop-opacity=".69"/><stop offset="1" stop-color="#fff" stop-opacity="0"/></linearGradient><linearGradient id="linear-gradient-2-easter-bunny-49" x1="767.37" y1="-159.47" x2="665.39" y2="-183.88" gradientTransform="translate(-485.56 324.1)" gradientUnits="userSpaceOnUse"><stop offset="0" stop-color="#231f20"/><stop offset=".13" stop-color="#231f20" stop-opacity=".69"/><stop offset="1" stop-color="#231f20" stop-opacity="0"/></linearGradient><linearGradient id="linear-gradient-3-easter-bunny-49" x1="-3338.17" y1="-171.74" x2="-3393.09" y2="-339.95" gradientTransform="translate(-3033.34 324.1) rotate(-180) scale(1 -1)" xlink:href="#linear-gradient-easter-bunny-49"/><linearGradient id="linear-gradient-4-easter-bunny-49" x1="-3248.09" y1="-154.58" x2="-3350.06" y2="-178.98" gradientTransform="translate(-3039.68 324.1) rotate(-180) scale(1 -1)" xlink:href="#linear-gradient-2-easter-bunny-49"/><linearGradient id="linear-gradient-5-easter-bunny-49" x1="746.26" y1="-97.17" x2="742.79" y2="63.18" xlink:href="#linear-gradient-2-easter-bunny-49"/><linearGradient id="linear-gradient-6-easter-bunny-49" x1="737.43" y1="-81.73" x2="723.04" y2="230.73" xlink:href="#linear-gradient-easter-bunny-49"/><linearGradient id="linear-gradient-7-easter-bunny-49" x1="730.45" y1="130.85" x2="742.4" y2="-35.76" xlink:href="#linear-gradient-2-easter-bunny-49"/><linearGradient id="linear-gradient-8-easter-bunny-49" x1="644.68" y1="-18.32" x2="644.68" y2="56.05" xlink:href="#linear-gradient-easter-bunny-49"/><linearGradient id="linear-gradient-9-easter-bunny-49" x1="-3304.87" y1="-18.32" x2="-3304.87" y2="56.05" gradientTransform="translate(-2953.15 324.1) rotate(-180) scale(1 -1)" xlink:href="#linear-gradient-easter-bunny-49"/><linearGradient id="linear-gradient-10-easter-bunny-49" x1="710.81" y1="-74.69" x2="706.01" y2="-89.37" gradientTransform="translate(-485.56 324.1)" xlink:href="#linear-gradient-2-easter-bunny-49"/><linearGradient id="linear-gradient-11-easter-bunny-49" x1="748.44" y1="-74.69" x2="743.65" y2="-89.37" gradientTransform="translate(-485.56 324.1)" xlink:href="#linear-gradient-2-easter-bunny-49"/><linearGradient id="linear-gradient-12-easter-bunny-49" x1="731.93" y1="-38.79" x2="757.13" y2="-38.79" xlink:href="#linear-gradient-2-easter-bunny-49"/></defs><g id="background_easter-bunny-49"><path class="cls-2_easter-bunny-49 targetColor" d="M226.76,59.48c-27.92,8.24-52.91,23.93-77.49,39.49l-96.82,61.24c-13.89,8.78-28.24,18-37.1,31.82-14.81,23.01-11.18,52.94-5.91,79.79,8.24,41.8,21.87,87.11,57.98,109.67,21.65,13.53,47.97,16.56,72.96,21.85,44.93,9.54,87.65,27.27,131.79,39.98,44.15,12.71,91.31,20.32,135.86,9.11,36.71-9.25,72.07-34.2,82.03-70.72,13.86-50.74-24.11-101.56-24.1-154.17,0-25.35,8.89-49.79,12.56-74.88,3.67-25.09.84-53.68-17.86-70.8-25.72-23.58-67.64-14.03-99.68-19.17-44.94-7.2-89.29-16.38-134.21-3.2Z" style="fill: rgb(104, 225, 253);"/></g><g id="bunny_easter-bunny-49"><path class="cls-14_easter-bunny-49 targetColor" d="M184.34,213.39c-22.95-29.58-31.88-67.56-37.1-104.63-2.27-16.2-3.2-34.84,8.16-46.59,2.54-2.79,5.86-4.78,9.52-5.7,6.58-1.37,13.44,2.03,17.86,7.08,4.42,5.04,6.87,11.47,9.18,17.86,14.55,40.63,24.15,82.86,28.61,125.79.4,2.48.35,5.02-.15,7.49-4.97,18.45-28.65,8.29-36.08-1.29Z" style="fill: rgb(104, 225, 253);"/><path class="cls-1_easter-bunny-49" d="M184.34,213.39c-22.95-29.58-31.88-67.56-37.1-104.63-2.27-16.2-3.2-34.84,8.16-46.59,2.54-2.79,5.86-4.78,9.52-5.7,6.58-1.37,13.44,2.03,17.86,7.08,4.42,5.04,6.87,11.47,9.18,17.86,14.55,40.63,24.15,82.86,28.61,125.79.4,2.48.35,5.02-.15,7.49-4.97,18.45-28.65,8.29-36.08-1.29Z"/><path class="cls-14_easter-bunny-49 targetColor" d="M195.4,162.34c-6.5-22.02-11.43-44.48-14.74-67.2-1.18-8.11-2.21-16.49-6-23.7-.51-1.22-1.39-2.25-2.51-2.94-2.75-1.37-5.77,1.37-7.21,4.01-2.82,5.35-3.43,11.59-1.72,17.39-.53-4.34-2.86-8.26-6.42-10.8-17.53,30.86,23.15,115.04,26.71,121.36,3.56,6.32,8.9,11.93,15.76,14.29,3.59,1.24,7.76,1.48,10.99-.48,9.54-5.77-.66-16.49-3.79-22.55-4.62-9.42-8.32-19.26-11.06-29.39Z" style="fill: rgb(104, 225, 253);"/><path class="cls-7_easter-bunny-49" d="M195.4,162.34c-6.5-22.02-11.43-44.48-14.74-67.2-1.18-8.11-2.21-16.49-6-23.7-.51-1.22-1.39-2.25-2.51-2.94-2.75-1.37-5.77,1.37-7.21,4.01-2.82,5.35-3.43,11.59-1.72,17.39-.53-4.34-2.86-8.26-6.42-10.8-17.53,30.86,23.15,115.04,26.71,121.36,3.56,6.32,8.9,11.93,15.76,14.29,3.59,1.24,7.76,1.48,10.99-.48,9.54-5.77-.66-16.49-3.79-22.55-4.62-9.42-8.32-19.26-11.06-29.39Z"/><path class="cls-14_easter-bunny-49 targetColor" d="M305.86,213.39c22.95-29.58,31.88-67.56,37.1-104.63,2.27-16.2,3.2-34.84-8.16-46.59-2.54-2.79-5.86-4.78-9.52-5.7-6.58-1.37-13.44,2.03-17.86,7.08-4.42,5.04-6.87,11.47-9.18,17.86-14.55,40.63-24.15,82.86-28.61,125.79-.4,2.48-.35,5.02.15,7.49,4.96,18.45,28.65,8.29,36.08-1.29Z" style="fill: rgb(104, 225, 253);"/><path class="cls-8_easter-bunny-49" d="M305.86,213.39c22.95-29.58,31.88-67.56,37.1-104.63,2.27-16.2,3.2-34.84-8.16-46.59-2.54-2.79-5.86-4.78-9.52-5.7-6.58-1.37-13.44,2.03-17.86,7.08-4.42,5.04-6.87,11.47-9.18,17.86-14.55,40.63-24.15,82.86-28.61,125.79-.4,2.48-.35,5.02.15,7.49,4.96,18.45,28.65,8.29,36.08-1.29Z"/><path class="cls-14_easter-bunny-49 targetColor" d="M294.8,167.21c6.5-22.02,11.42-44.48,14.74-67.2,1.18-8.11,2.21-16.49,6-23.71.51-1.22,1.39-2.24,2.51-2.93,2.75-1.37,5.77,1.37,7.21,4,2.83,5.38,3.43,11.66,1.68,17.48.53-4.34,2.86-8.26,6.42-10.8,17.53,30.89-23.17,115.04-26.71,121.36-3.54,6.32-8.9,11.93-15.76,14.29-3.59,1.24-7.76,1.48-10.99-.48-9.54-5.77.66-16.49,3.79-22.55,4.63-9.44,8.35-19.31,11.1-29.46Z" style="fill: rgb(104, 225, 253);"/><path class="cls-6_easter-bunny-49" d="M294.8,167.21c6.5-22.02,11.42-44.48,14.74-67.2,1.18-8.11,2.21-16.49,6-23.71.51-1.22,1.39-2.24,2.51-2.93,2.75-1.37,5.77,1.37,7.21,4,2.83,5.38,3.43,11.66,1.68,17.48.53-4.34,2.86-8.26,6.42-10.8,17.53,30.89-23.17,115.04-26.71,121.36-3.54,6.32-8.9,11.93-15.76,14.29-3.59,1.24-7.76,1.48-10.99-.48-9.54-5.77.66-16.49,3.79-22.55,4.63-9.44,8.35-19.31,11.1-29.46Z"/><ellipse class="cls-14_easter-bunny-49 targetColor" cx="258.96" cy="307.19" rx="182.16" ry="25.28" style="fill: rgb(104, 225, 253);"/><path class="cls-12_easter-bunny-49" d="M441.13,307.18c0,10.99-50.53,20.35-121.12,23.82-14.84.74-30.56,1.21-46.88,1.37-4.67.05-9.39.08-14.17.08-30.87,0-59.96-1.07-85.43-2.95h-.93c-57.05-4.26-95.81-12.64-95.81-22.26,0-8.82,32.6-16.6,82-21.1,5.16-.47,10.49-.93,16.01-1.37,3.12-.23,6.29-.44,9.52-.65,22.78-1.37,48.09-2.21,74.65-2.21,21.04,0,41.22.49,60.07,1.37l2.51.12c4.58.23,9.03.48,13.36.76,62.68,4.03,106.22,12.82,106.22,23.01Z"/><path class="cls-14_easter-bunny-49 targetColor" d="M328.49,285c.67,1.37,1.31,2.83,1.85,4.29,4.59,12.27,4.12,35.81-10.06,41.48-7.54,3.01-20.13,1.07-28.17,1.28-11.05.28-22.1.42-33.15.41-21.54,0-43.09-.49-64.58-1.64-8.59-.45-17.41.92-23.26-5.19-5.5-5.78-6.66-16.01-5.98-23.55.85-9.27,4.23-18.08,6.69-27.07,3.54-12.96,5.22-26.42,9.62-39.13,14.52-42.28,80.1-59.16,113.17-27.34,16.16,15.57,16.03,41.22,25.8,61.39,2.39,5.12,5.58,9.95,8.05,15.07Z" style="fill: rgb(104, 225, 253);"/><path class="cls-13_easter-bunny-49" d="M328.49,285c.67,1.37,1.31,2.83,1.85,4.29,4.59,12.27,4.12,35.81-10.06,41.48-7.54,3.01-20.13,1.07-28.17,1.28-11.05.28-22.1.42-33.15.41-21.54,0-43.09-.49-64.58-1.64-8.59-.45-17.41.92-23.26-5.19-5.5-5.78-6.66-16.01-5.98-23.55.85-9.27,4.23-18.08,6.69-27.07,3.54-12.96,5.22-26.42,9.62-39.13,14.52-42.28,80.1-59.16,113.17-27.34,16.16,15.57,16.03,41.22,25.8,61.39,2.39,5.12,5.58,9.95,8.05,15.07Z"/><path class="cls-11_easter-bunny-49" d="M342.37,317.43c-.41.61-.99,1.09-1.68,1.37-12.71,6.44-27.16,8.35-41.3,10.18l-26.26,3.38c-4.67.05-9.39.08-14.17.08-30.87,0-59.96-1.07-85.43-2.95-1.37-9.62,2.01-18.36-2.75-28.25-2.47-5.14-3.27-7.23-.12-12.15,1.28-1.54,2.65-2.99,4.12-4.34,3.68-3.61,8.39-8.13,8.24-8.96.67,2.71,1.13,5.46,1.37,8.24.25,3.14.22,6.29-.1,9.43,4.1-.34,8.14-1.23,12.01-2.65-.34,4.51-.67,9.15.77,13.44,1.44,4.29,5.15,8.13,9.62,8.24,4.12.15,9.34-2.1,11.4,1.37.47.8.6,1.73,1.07,2.54.99,1.74,3.16,2.36,5.12,2.75,24.61,5.1,50.07,1.2,74.88-2.75.56-4.26,1.11-8.53,1.66-12.79,2.41,2.84,5.7,4.81,9.34,5.59,1.22-9.23,2.86-19.24,8.88-26.11.69-.79,1.43-1.53,2.23-2.21.03.78.13,1.57.29,2.34,1.84,11.88,8.43,22.51,18.26,29.43,1.57,1.33,3.46,3.13,2.53,4.77Z"/><path class="cls-14_easter-bunny-49 targetColor" d="M140.2,298.8c-3.73,1.57-7.22,3.65-10.36,6.2,11.64-5.39,23.48-10.84,36.15-12.87,5.16-.75,10.37-1.21,15.58-1.37l12.02-.56c3.66-.25,7.33-.29,10.99-.11,2.58.18,6.87,1.85,9.11.96-1.87-3.98-11.8-3.23-15.48-3.41-6.73-.31-13.48-.09-20.17.67-13.09,1.48-25.86,5.03-37.84,10.5Z" style="fill: rgb(104, 225, 253);"/><path class="cls-14_easter-bunny-49 targetColor" d="M139.35,299.66c-12.34,7.03-16.65,22.74-9.62,35.08.32.56.66,1.13,1.03,1.66,2.53,3.5,5.58,6.58,9.05,9.14,3.54,2.75,7.47,5.5,11.97,6.11s9.62-1.37,11.23-5.69c1.15,4.12,6.32,6.1,10.35,4.77s6.87-5.19,8.01-9.27c-.4,2.36,2.16,4.49,4.55,4.25,2.41-.45,4.38-2.19,5.12-4.52.7-2.3.96-4.71.78-7.1l-.21-18.15c0-4.12-.14-8.24-2.02-11.91-7.34-14-39.1-10.72-50.25-4.36Z" style="fill: rgb(104, 225, 253);"/><path class="cls-9_easter-bunny-49" d="M139.35,299.66c-12.34,7.03-16.65,22.74-9.62,35.08.32.56.66,1.13,1.03,1.66,2.53,3.5,5.58,6.58,9.05,9.14,3.54,2.75,7.47,5.5,11.97,6.11s9.62-1.37,11.23-5.69c1.15,4.12,6.32,6.1,10.35,4.77s6.87-5.19,8.01-9.27c-.4,2.36,2.16,4.49,4.55,4.25,2.41-.45,4.38-2.19,5.12-4.52.7-2.3.96-4.71.78-7.1l-.21-18.15c0-4.12-.14-8.24-2.02-11.91-7.34-14-39.1-10.72-50.25-4.36Z"/><path class="cls-14_easter-bunny-49 targetColor" d="M371.5,299.66c12.34,7.03,16.65,22.74,9.62,35.08-.32.56-.66,1.13-1.03,1.66-2.53,3.49-5.58,6.57-9.05,9.14-3.56,2.75-7.47,5.5-11.97,6.11s-9.62-1.37-11.23-5.69c-1.15,4.12-6.33,6.1-10.36,4.77s-6.87-5.19-8.01-9.27c.41,2.36-2.16,4.49-4.53,4.25-2.41-.45-4.38-2.19-5.12-4.52-.7-2.3-.97-4.71-.8-7.1l.22-18.15c0-4.12.14-8.24,2.02-11.91,7.32-14,39.09-10.72,50.25-4.36Z" style="fill: rgb(104, 225, 253);"/><path class="cls-10_easter-bunny-49" d="M371.5,299.66c12.34,7.03,16.65,22.74,9.62,35.08-.32.56-.66,1.13-1.03,1.66-2.53,3.49-5.58,6.57-9.05,9.14-3.56,2.75-7.47,5.5-11.97,6.11s-9.62-1.37-11.23-5.69c-1.15,4.12-6.33,6.1-10.36,4.77s-6.87-5.19-8.01-9.27c.41,2.36-2.16,4.49-4.53,4.25-2.41-.45-4.38-2.19-5.12-4.52-.7-2.3-.97-4.71-.8-7.1l.22-18.15c0-4.12.14-8.24,2.02-11.91,7.32-14,39.09-10.72,50.25-4.36Z"/><ellipse class="cls-5_easter-bunny-49" cx="224.96" cy="248.54" rx="4.75" ry="7.85"/><ellipse class="cls-3_easter-bunny-49" cx="262.6" cy="248.54" rx="4.75" ry="7.85"/><path class="cls-4_easter-bunny-49" d="M257.01,275.83c-2.64-.12-5.5-.22-7.76,1.06-2.27,1.28-3.78,4.51-2.27,6.68.43.56.94,1.06,1.51,1.47l9.81,7.76c.96.88,2.11,1.54,3.35,1.94,3.15.76,6.06-1.98,7.71-4.77,1.54-2.33,2.3-5.09,2.16-7.87-.89-7.41-9.14-5.99-14.51-6.27Z"/><path class="cls-14_easter-bunny-49 targetColor" d="M245.12,309.98h-.29c-.48,1.03.87,1.95,1.98,2.21,5.16,1.18,10.58-.02,14.76-3.27,5.61,3.57,13.85,3.26,17.96-2.35,1.77-2.44,2.58-5.44,2.27-8.44-.04-.62-.22-1.22-.51-1.76-.31-.55-.88-.91-1.51-.93.04,1.9-.02,3.8-.18,5.69-.05,1.2-.33,2.39-.81,3.49-.77,1.37-1.98,2.43-3.43,3.01-2.75,1.15-9.16,2.17-11.28-.6-1.04-1.37-.74-3.33-.4-5.02.21-1.03,2.36-8.24.23-7.01-1.59.96-1.22,6.76-2.43,8.74-1.74,2.6-4.39,4.45-7.43,5.19-5.17,1.47-11.4,2.01-15.11-2.51-1.51-1.94-2.54-4.2-3.01-6.61-1.21.15-2.14,1.13-2.24,2.35-.05,1.18.19,2.36.71,3.42,1,2.54,2.32,5.21,4.74,6.49,1.29.61,2.69.98,4.12,1.07,3.71.44,7.8.47,10.8-1.79" style="fill: rgb(104, 225, 253);"/><path class="cls-14_easter-bunny-49 targetColor" d="M141.62,258.35c-4.04.19-8.03.95-11.86,2.27,12.79-1.07,25.78-2.13,38.38.32,5.11,1.1,10.15,2.47,15.11,4.12l11.47,3.6c3.53,1.03,7,2.26,10.39,3.68,2.36,1.04,5.74,4.12,8.24,4.03-.38-4.38-9.98-7.08-13.38-8.5-18.42-7.75-38.42-11.01-58.35-9.51Z" style="fill: rgb(104, 225, 253);"/><path class="cls-14_easter-bunny-49 targetColor" d="M139.42,278.19c-3.95.86-7.76,2.28-11.32,4.2,12.37-3.17,25.06-6.38,37.89-6.06,5.21.24,10.41.75,15.57,1.55l11.91,1.64c3.65.43,7.27,1.07,10.84,1.91,2.51.65,6.35,3.06,8.78,2.6-1.11-4.25-10.99-5.32-14.61-6.16-6.55-1.54-13.21-2.55-19.92-3.04-13.14-.95-26.35.18-39.14,3.35Z" style="fill: rgb(104, 225, 253);"/><path class="cls-14_easter-bunny-49 targetColor" d="M368.49,289.43c3.73,1.57,7.21,3.66,10.36,6.2-11.65-5.39-23.48-10.84-36.16-12.86-5.16-.75-10.37-1.21-15.58-1.37l-12.02-.56c-3.66-.25-7.33-.29-10.99-.11-2.58.18-6.87,1.87-9.11.96,1.87-3.98,11.8-3.23,15.48-3.39,19.95-.95,39.84,2.85,58.04,11.09v.05Z" style="fill: rgb(104, 225, 253);"/><path class="cls-14_easter-bunny-49 targetColor" d="M367.06,248.91c4.04.19,8.03.96,11.86,2.27-12.79-1.07-25.78-2.13-38.38.32-5.11,1.09-10.16,2.47-15.11,4.12l-11.49,3.6c-3.52,1.02-6.97,2.25-10.35,3.67-2.36,1.06-5.74,4.12-8.24,4.03.4-4.38,9.98-7.08,13.38-8.5,6.21-2.61,12.62-4.72,19.17-6.31,12.8-3.11,26.02-4.19,39.16-3.19Z" style="fill: rgb(104, 225, 253);"/><path class="cls-14_easter-bunny-49 targetColor" d="M369.27,268.83c3.95.85,7.76,2.27,11.31,4.2-12.37-3.19-25.06-6.38-37.89-6.06-5.21.22-10.4.74-15.55,1.54l-11.93,1.64c-3.65.44-7.26,1.07-10.84,1.91-2.51.65-6.35,3.06-8.78,2.6,1.11-4.25,10.99-5.32,14.61-6.16,6.56-1.54,13.23-2.56,19.95-3.04,13.14-.94,26.34.2,39.13,3.37Z" style="fill: rgb(104, 225, 253);"/></g></svg>